<svg xmlns="http://www.w3.org/2000/svg" width="1280" height="634" viewBox="0 0 1280 634" role="img" aria-labelledby="title desc">
<title>Dispersión global por noticia</title>
<desc>Dispersión global por noticia</desc>

    <style>
      .title { font: 700 24px Inter, system-ui, -apple-system, sans-serif; fill: #f9fafb; }
      .subtitle { font: 14px Inter, system-ui, -apple-system, sans-serif; fill: #6b7280; }
      .label { font: 13px Inter, system-ui, -apple-system, sans-serif; fill: #f9fafb; }
      .small { font: 12px Inter, system-ui, -apple-system, sans-serif; fill: #6b7280; }
      .value { font: 700 13px Inter, system-ui, -apple-system, sans-serif; fill: #f9fafb; }
      .axis { stroke: #1e293b; stroke-width: 1; }
      .panel { fill: #111827; stroke: #1e293b; stroke-width: 1; }
    </style>
    
<rect width="1280" height="634" rx="18" fill="#111827" />
<text x="36" y="44" class="title">La misma distribución sobre la escala completa 0–10</text>
<text x="36" y="68" class="subtitle">Eje fijo 0–10: la variabilidad real suele ser menor de lo que sugiere la vista ampliada anterior.</text>
<rect x="828" y="32" width="430" height="58" rx="12" fill="#1e293b" stroke="#1e293b" />
<line x1="840" y1="46" x2="866" y2="46" stroke="#94a3b8" stroke-width="3" stroke-linecap="round" />
<line x1="840" y1="39" x2="840" y2="53" stroke="#94a3b8" stroke-width="2" />
<line x1="866" y1="39" x2="866" y2="53" stroke="#94a3b8" stroke-width="2" />
<text x="872" y="51" class="small">min-max</text>
<rect x="954" y="38" width="24" height="16" rx="5" fill="#fdeed3" stroke="#f59e0b" stroke-width="1.2" />
<text x="984" y="51" class="small">IQR (50% central)</text>
<line x1="1136" y1="37" x2="1136" y2="55" stroke="#f9fafb" stroke-width="2.5" />
<text x="1144" y="51" class="small">mediana</text>
<polygon points="850,63 858,71 850,79 842,71" fill="#f9fafb" />
<text x="864" y="75" class="small">media</text>
<circle cx="958" cy="71" r="5" fill="#f59e0b" stroke="#111827" stroke-width="1.5" opacity="0.9" />
<text x="969" y="75" class="small">ejecución individual</text>
<line x1="340.0" y1="82" x2="340.0" y2="600" class="axis" />
<text x="340.0" y="622" text-anchor="middle" class="small">0</text>
<line x1="490.0" y1="82" x2="490.0" y2="600" class="axis" />
<text x="490.0" y="622" text-anchor="middle" class="small">2</text>
<line x1="640.0" y1="82" x2="640.0" y2="600" class="axis" />
<text x="640.0" y="622" text-anchor="middle" class="small">4</text>
<line x1="790.0" y1="82" x2="790.0" y2="600" class="axis" />
<text x="790.0" y="622" text-anchor="middle" class="small">6</text>
<line x1="940.0" y1="82" x2="940.0" y2="600" class="axis" />
<text x="940.0" y="622" text-anchor="middle" class="small">8</text>
<line x1="1090.0" y1="82" x2="1090.0" y2="600" class="axis" />
<text x="1090.0" y="622" text-anchor="middle" class="small">10</text>
<rect x="20" y="100" width="1240" height="140" rx="16" fill="#0f1117" stroke="#1e293b" />
<text x="36" y="128" class="label"><title>La &#x27;campaña&#x27; política de Argüello molesta a los obispos: “Nos ha vuelto a meter en un lío”</title>La &#x27;campaña&#x27; política de Argüello molesta a l…</text>
<text x="36" y="150" class="small">n=20 | media 6.45 | mediana 6.50 | IQR 0.31 | rango 1.00</text>
<line x1="777.2" y1="175.0" x2="852.2" y2="175.0" stroke="#94a3b8" stroke-width="3" stroke-linecap="round" />
<line x1="777.2" y1="163.0" x2="777.2" y2="187.0" stroke="#94a3b8" stroke-width="2" />
<line x1="852.2" y1="163.0" x2="852.2" y2="187.0" stroke="#94a3b8" stroke-width="2" />
<rect x="815.3" y="162.0" width="22.9" height="26" rx="8" fill="#d7f5e2" stroke="#22c55e" stroke-width="1.2" />
<line x1="827.5" y1="160.0" x2="827.5" y2="190.0" stroke="#f9fafb" stroke-width="2" />
<rect x="803.7" y="171.0" width="40.2" height="8" rx="4" fill="#b8eccb" />
<polygon points="823.8,165.0 831.8,175.0 823.8,185.0 815.8,175.0" fill="#f9fafb" />
<circle cx="804.8" cy="175.0" r="4.5" fill="#f59e0b" stroke="#111827" stroke-width="1.5" opacity="0.85"><title>A1_6943d61c8a3fcd3af7663ee3.json: 6.83</title></circle>
<circle cx="768.5" cy="175.0" r="4.5" fill="#f59e0b" stroke="#111827" stroke-width="1.5" opacity="0.85"><title>A2_6943d61c8a3fcd3af7663ee3.json: 6.28</title></circle>
<circle cx="808.8" cy="175.0" r="4.5" fill="#f59e0b" stroke="#111827" stroke-width="1.5" opacity="0.85"><title>A3_6943d61c8a3fcd3af7663ee3.json: 6.75</title></circle>
<circle cx="789.8" cy="175.0" r="4.5" fill="#f59e0b" stroke="#111827" stroke-width="1.5" opacity="0.85"><title>A4_6943d61c8a3fcd3af7663ee3.json: 6.43</title></circle>
<circle cx="807.5" cy="175.0" r="4.5" fill="#f59e0b" stroke="#111827" stroke-width="1.5" opacity="0.85"><title>A5_6943d61c8a3fcd3af7663ee3.json: 6.60</title></circle>
<circle cx="766.0" cy="175.0" r="4.5" fill="#f59e0b" stroke="#111827" stroke-width="1.5" opacity="0.85"><title>A6_6943d61c8a3fcd3af7663ee3.json: 5.98</title></circle>
<circle cx="813.8" cy="175.0" r="4.5" fill="#f59e0b" stroke="#111827" stroke-width="1.5" opacity="0.85"><title>A7_6943d61c8a3fcd3af7663ee3.json: 6.55</title></circle>
<circle cx="815.0" cy="175.0" r="4.5" fill="#f59e0b" stroke="#111827" stroke-width="1.5" opacity="0.85"><title>A8_6943d61c8a3fcd3af7663ee3.json: 6.50</title></circle>
<circle cx="784.8" cy="175.0" r="4.5" fill="#f59e0b" stroke="#111827" stroke-width="1.5" opacity="0.85"><title>A9_6943d61c8a3fcd3af7663ee3.json: 6.03</title></circle>
<circle cx="821.2" cy="175.0" r="4.5" fill="#f59e0b" stroke="#111827" stroke-width="1.5" opacity="0.85"><title>A10_6943d61c8a3fcd3af7663ee3.json: 6.45</title></circle>
<circle cx="830.0" cy="175.0" r="4.5" fill="#f59e0b" stroke="#111827" stroke-width="1.5" opacity="0.85"><title>A11_6943d61c8a3fcd3af7663ee3.json: 6.50</title></circle>
<circle cx="850.0" cy="175.0" r="4.5" fill="#f59e0b" stroke="#111827" stroke-width="1.5" opacity="0.85"><title>A12_6943d61c8a3fcd3af7663ee3.json: 6.70</title></circle>
<circle cx="828.8" cy="175.0" r="4.5" fill="#f59e0b" stroke="#111827" stroke-width="1.5" opacity="0.85"><title>A13_6943d61c8a3fcd3af7663ee3.json: 6.35</title></circle>
<circle cx="833.8" cy="175.0" r="4.5" fill="#f59e0b" stroke="#111827" stroke-width="1.5" opacity="0.85"><title>A14_6943d61c8a3fcd3af7663ee3.json: 6.35</title></circle>
<circle cx="835.0" cy="175.0" r="4.5" fill="#f59e0b" stroke="#111827" stroke-width="1.5" opacity="0.85"><title>A15_6943d61c8a3fcd3af7663ee3.json: 6.30</title></circle>
<circle cx="858.8" cy="175.0" r="4.5" fill="#f59e0b" stroke="#111827" stroke-width="1.5" opacity="0.85"><title>A16_6943d61c8a3fcd3af7663ee3.json: 6.55</title></circle>
<circle cx="873.5" cy="175.0" r="4.5" fill="#f59e0b" stroke="#111827" stroke-width="1.5" opacity="0.85"><title>A17_6943d61c8a3fcd3af7663ee3.json: 6.68</title></circle>
<circle cx="874.8" cy="175.0" r="4.5" fill="#f59e0b" stroke="#111827" stroke-width="1.5" opacity="0.85"><title>A18_6943d61c8a3fcd3af7663ee3.json: 6.63</title></circle>
<circle cx="887.2" cy="175.0" r="4.5" fill="#f59e0b" stroke="#111827" stroke-width="1.5" opacity="0.85"><title>A19_6943d61c8a3fcd3af7663ee3.json: 6.73</title></circle>
<circle cx="824.8" cy="175.0" r="4.5" fill="#f59e0b" stroke="#111827" stroke-width="1.5" opacity="0.85"><title>A20_6943d61c8a3fcd3af7663ee3.json: 5.83</title></circle>
<rect x="1120" y="120" width="124" height="18" rx="9" fill="#7f1d1d" />
<text x="1182" y="133" text-anchor="middle" font-family="Inter, system-ui, sans-serif" font-size="11" font-weight="700" fill="#f9fafb">status variable</text>
<rect x="20" y="258" width="1240" height="140" rx="16" fill="#0f1117" stroke="#1e293b" />
<text x="36" y="286" class="label"><title>España se sitúa a la cola de países de la UE en accesibilidad a la vivienda</title>España se sitúa a la cola de países de la UE…</text>
<text x="36" y="308" class="small">n=20 | media 6.99 | mediana 7.08 | IQR 0.40 | rango 1.32</text>
<line x1="803.5" y1="333.0" x2="902.5" y2="333.0" stroke="#94a3b8" stroke-width="3" stroke-linecap="round" />
<line x1="803.5" y1="321.0" x2="803.5" y2="345.0" stroke="#94a3b8" stroke-width="2" />
<line x1="902.5" y1="321.0" x2="902.5" y2="345.0" stroke="#94a3b8" stroke-width="2" />
<rect x="849.2" y="320.0" width="30.2" height="26" rx="8" fill="#fdeed3" stroke="#f59e0b" stroke-width="1.2" />
<line x1="871.0" y1="318.0" x2="871.0" y2="348.0" stroke="#f9fafb" stroke-width="2" />
<rect x="840.1" y="329.0" width="49.1" height="8" rx="4" fill="#fce0b1" />
<polygon points="864.6,323.0 872.6,333.0 864.6,343.0 856.6,333.0" fill="#f9fafb" />
<circle cx="827.2" cy="333.0" r="4.5" fill="#f59e0b" stroke="#111827" stroke-width="1.5" opacity="0.85"><title>E1_69979303c1b938e19e4dcacc.json: 7.13</title></circle>
<circle cx="832.2" cy="333.0" r="4.5" fill="#f59e0b" stroke="#111827" stroke-width="1.5" opacity="0.85"><title>E2_69979303c1b938e19e4dcacc.json: 7.13</title></circle>
<circle cx="807.2" cy="333.0" r="4.5" fill="#f59e0b" stroke="#111827" stroke-width="1.5" opacity="0.85"><title>E3_69979303c1b938e19e4dcacc.json: 6.73</title></circle>
<circle cx="840.8" cy="333.0" r="4.5" fill="#f59e0b" stroke="#111827" stroke-width="1.5" opacity="0.85"><title>E4_69979303c1b938e19e4dcacc.json: 7.11</title></circle>
<circle cx="854.8" cy="333.0" r="4.5" fill="#f59e0b" stroke="#111827" stroke-width="1.5" opacity="0.85"><title>E5_69979303c1b938e19e4dcacc.json: 7.23</title></circle>
<circle cx="781.0" cy="333.0" r="4.5" fill="#f59e0b" stroke="#111827" stroke-width="1.5" opacity="0.85"><title>E6_69979303c1b938e19e4dcacc.json: 6.18</title></circle>
<circle cx="868.5" cy="333.0" r="4.5" fill="#f59e0b" stroke="#111827" stroke-width="1.5" opacity="0.85"><title>E7_69979303c1b938e19e4dcacc.json: 7.28</title></circle>
<circle cx="878.8" cy="333.0" r="4.5" fill="#f59e0b" stroke="#111827" stroke-width="1.5" opacity="0.85"><title>E8_69979303c1b938e19e4dcacc.json: 7.35</title></circle>
<circle cx="893.5" cy="333.0" r="4.5" fill="#f59e0b" stroke="#111827" stroke-width="1.5" opacity="0.85"><title>E9_69979303c1b938e19e4dcacc.json: 7.48</title></circle>
<circle cx="868.5" cy="333.0" r="4.5" fill="#f59e0b" stroke="#111827" stroke-width="1.5" opacity="0.85"><title>E10_69979303c1b938e19e4dcacc.json: 7.08</title></circle>
<circle cx="873.5" cy="333.0" r="4.5" fill="#f59e0b" stroke="#111827" stroke-width="1.5" opacity="0.85"><title>E11_69979303c1b938e19e4dcacc.json: 7.08</title></circle>
<circle cx="852.2" cy="333.0" r="4.5" fill="#f59e0b" stroke="#111827" stroke-width="1.5" opacity="0.85"><title>E12_69979303c1b938e19e4dcacc.json: 6.73</title></circle>
<circle cx="863.2" cy="333.0" r="4.5" fill="#f59e0b" stroke="#111827" stroke-width="1.5" opacity="0.85"><title>E13_69979303c1b938e19e4dcacc.json: 6.81</title></circle>
<circle cx="868.2" cy="333.0" r="4.5" fill="#f59e0b" stroke="#111827" stroke-width="1.5" opacity="0.85"><title>E14_69979303c1b938e19e4dcacc.json: 6.81</title></circle>
<circle cx="863.5" cy="333.0" r="4.5" fill="#f59e0b" stroke="#111827" stroke-width="1.5" opacity="0.85"><title>E15_69979303c1b938e19e4dcacc.json: 6.68</title></circle>
<circle cx="888.8" cy="333.0" r="4.5" fill="#f59e0b" stroke="#111827" stroke-width="1.5" opacity="0.85"><title>E16_69979303c1b938e19e4dcacc.json: 6.95</title></circle>
<circle cx="935.0" cy="333.0" r="4.5" fill="#f59e0b" stroke="#111827" stroke-width="1.5" opacity="0.85"><title>E17_69979303c1b938e19e4dcacc.json: 7.50</title></circle>
<circle cx="895.0" cy="333.0" r="4.5" fill="#f59e0b" stroke="#111827" stroke-width="1.5" opacity="0.85"><title>E18_69979303c1b938e19e4dcacc.json: 6.90</title></circle>
<circle cx="921.0" cy="333.0" r="4.5" fill="#f59e0b" stroke="#111827" stroke-width="1.5" opacity="0.85"><title>E19_69979303c1b938e19e4dcacc.json: 7.18</title></circle>
<circle cx="878.8" cy="333.0" r="4.5" fill="#f59e0b" stroke="#111827" stroke-width="1.5" opacity="0.85"><title>E20_69979303c1b938e19e4dcacc.json: 6.55</title></circle>
<rect x="1120" y="278" width="124" height="18" rx="9" fill="#14532d" />
<text x="1182" y="291" text-anchor="middle" font-family="Inter, system-ui, sans-serif" font-size="11" font-weight="700" fill="#f9fafb">status consistente</text>
<rect x="20" y="416" width="1240" height="140" rx="16" fill="#0f1117" stroke="#1e293b" />
<text x="36" y="444" class="label"><title>Biden indulta a su hijo Hunter pese a haber asegurado que no lo haría</title>Biden indulta a su hijo Hunter pese a haber a…</text>
<text x="36" y="466" class="small">n=20 | media 5.02 | mediana 5.04 | IQR 0.47 | rango 1.90</text>
<line x1="666.2" y1="491.0" x2="808.8" y2="491.0" stroke="#94a3b8" stroke-width="3" stroke-linecap="round" />
<line x1="666.2" y1="479.0" x2="666.2" y2="503.0" stroke="#94a3b8" stroke-width="2" />
<line x1="808.8" y1="479.0" x2="808.8" y2="503.0" stroke="#94a3b8" stroke-width="2" />
<rect x="692.9" y="478.0" width="35.6" height="26" rx="8" fill="#fcdddd" stroke="#ef4444" stroke-width="1.2" />
<line x1="718.0" y1="476.0" x2="718.0" y2="506.0" stroke="#f9fafb" stroke-width="2" />
<rect x="682.4" y="487.0" width="68.6" height="8" rx="4" fill="#fac3c3" />
<polygon points="716.7,481.0 724.7,491.0 716.7,501.0 708.7,491.0" fill="#f9fafb" />
<circle cx="647.2" cy="491.0" r="4.5" fill="#f59e0b" stroke="#111827" stroke-width="1.5" opacity="0.85"><title>B1_69b32c88c269d89e0a66620d.json: 4.73</title></circle>
<circle cx="667.2" cy="491.0" r="4.5" fill="#f59e0b" stroke="#111827" stroke-width="1.5" opacity="0.85"><title>B2_69b32c88c269d89e0a66620d.json: 4.93</title></circle>
<circle cx="679.8" cy="491.0" r="4.5" fill="#f59e0b" stroke="#111827" stroke-width="1.5" opacity="0.85"><title>B3_69b32c88c269d89e0a66620d.json: 5.03</title></circle>
<circle cx="647.2" cy="491.0" r="4.5" fill="#f59e0b" stroke="#111827" stroke-width="1.5" opacity="0.85"><title>B4_69b32c88c269d89e0a66620d.json: 4.53</title></circle>
<circle cx="682.2" cy="491.0" r="4.5" fill="#f59e0b" stroke="#111827" stroke-width="1.5" opacity="0.85"><title>B5_69b32c88c269d89e0a66620d.json: 4.93</title></circle>
<circle cx="691.0" cy="491.0" r="4.5" fill="#f59e0b" stroke="#111827" stroke-width="1.5" opacity="0.85"><title>B6_69b32c88c269d89e0a66620d.json: 4.98</title></circle>
<circle cx="791.2" cy="491.0" r="4.5" fill="#f59e0b" stroke="#111827" stroke-width="1.5" opacity="0.85"><title>B7_69b32c88c269d89e0a66620d.json: 6.25</title></circle>
<circle cx="658.2" cy="491.0" r="4.5" fill="#f59e0b" stroke="#111827" stroke-width="1.5" opacity="0.85"><title>B8_69b32c88c269d89e0a66620d.json: 4.41</title></circle>
<circle cx="728.5" cy="491.0" r="4.5" fill="#f59e0b" stroke="#111827" stroke-width="1.5" opacity="0.85"><title>B9_69b32c88c269d89e0a66620d.json: 5.28</title></circle>
<circle cx="684.8" cy="491.0" r="4.5" fill="#f59e0b" stroke="#111827" stroke-width="1.5" opacity="0.85"><title>B10_69b32c88c269d89e0a66620d.json: 4.63</title></circle>
<circle cx="668.8" cy="491.0" r="4.5" fill="#f59e0b" stroke="#111827" stroke-width="1.5" opacity="0.85"><title>B11_69b32c88c269d89e0a66620d.json: 4.35</title></circle>
<circle cx="681.2" cy="491.0" r="4.5" fill="#f59e0b" stroke="#111827" stroke-width="1.5" opacity="0.85"><title>B12_69b32c88c269d89e0a66620d.json: 4.45</title></circle>
<circle cx="733.5" cy="491.0" r="4.5" fill="#f59e0b" stroke="#111827" stroke-width="1.5" opacity="0.85"><title>B13_69b32c88c269d89e0a66620d.json: 5.08</title></circle>
<circle cx="746.0" cy="491.0" r="4.5" fill="#f59e0b" stroke="#111827" stroke-width="1.5" opacity="0.85"><title>B14_69b32c88c269d89e0a66620d.json: 5.18</title></circle>
<circle cx="745.0" cy="491.0" r="4.5" fill="#f59e0b" stroke="#111827" stroke-width="1.5" opacity="0.85"><title>B15_69b32c88c269d89e0a66620d.json: 5.10</title></circle>
<circle cx="746.2" cy="491.0" r="4.5" fill="#f59e0b" stroke="#111827" stroke-width="1.5" opacity="0.85"><title>B16_69b32c88c269d89e0a66620d.json: 5.05</title></circle>
<circle cx="761.0" cy="491.0" r="4.5" fill="#f59e0b" stroke="#111827" stroke-width="1.5" opacity="0.85"><title>B17_69b32c88c269d89e0a66620d.json: 5.18</title></circle>
<circle cx="803.5" cy="491.0" r="4.5" fill="#f59e0b" stroke="#111827" stroke-width="1.5" opacity="0.85"><title>B18_69b32c88c269d89e0a66620d.json: 5.68</title></circle>
<circle cx="771.0" cy="491.0" r="4.5" fill="#f59e0b" stroke="#111827" stroke-width="1.5" opacity="0.85"><title>B19_69b32c88c269d89e0a66620d.json: 5.18</title></circle>
<circle cx="800.0" cy="491.0" r="4.5" fill="#f59e0b" stroke="#111827" stroke-width="1.5" opacity="0.85"><title>B20_69b32c88c269d89e0a66620d.json: 5.50</title></circle>
<rect x="1120" y="436" width="124" height="18" rx="9" fill="#7f1d1d" />
<text x="1182" y="449" text-anchor="middle" font-family="Inter, system-ui, sans-serif" font-size="11" font-weight="700" fill="#f9fafb">status variable</text>
</svg>